<!DOCTYPE svg PUBLIC "-//W3C//DTD SVG 1.1//EN" "http://www.w3.org/Graphics/SVG/1.1/DTD/svg11.dtd">
<!-- drawn by AlgaeGraphix -->
<svg xmlns="http://www.w3.org/2000/svg" width="500" height="500">
<title>SUBWAY</title>
<g transform="scale(0.8)translate(50,50)">
 <path d="M 35,434 Q 20 434 20,418 L 20,62.5 Q 20 52.5 35,47 L 125,8 Q 148 0 160,0 L
340,0 Q 352 0 375,8 L 465,47 Q 480 52.5 480,62.5 L 480,418 Q 480 434 465,434 Z" stroke="none" fill="black" />
 <g stroke="black" fill="none" >
  <path d="M 115,434 V 500 M 385,434 V 500" stroke-width="28" />
  <path d="M 115,455 H 385" stroke-width="42" />
</g>
 <g stroke="none" fill="white">
  <rect x="59" y="133" rx="7.5" ry="7.5" width="101" height="133" style="fill:#E85512;" />
  <rect x="223" y="133" rx="7.5" ry="7.5" width="54" height="133" style="fill:#E85512;" />
  <rect x="340" y="133" rx="7.5" ry="7.5" width="101" height="133" style="fill:#E85512;" />
  <circle cx="105" cy="51" r="12"/>
  <circle cx="140" cy="51" r="12"/>
  <circle cx="360" cy="51" r="12" />
  <circle cx="395" cy="51" r="12"/>
 </g>
 <g stroke="white" fill="none">
  <path d="M 20,86 H 480 M 199,86 V 395 H 301 V 86" stroke-width="10"/>
  <path d="M 172,51 H 328" stroke-width="24"/>
 </g>
</g>
</svg>
