<?xml version='1.0' encoding='iso-8859-1'?>
<svg version="1.1" xmlns="http://www.w3.org/2000/svg" viewBox="0 0 41.34 41.34" xmlns:xlink="http://www.w3.org/1999/xlink" enable-background="new 0 0 41.34 41.34">
  <g>
    <g>
      <g>
        <path fill="#E85512" stroke-width="3" fill-rule="evenodd" d="m8.139,0c-2.209,0-3.999,1.791-3.999,4s1.79,4 3.999,4c2.204,0 3.998-1.791 3.998-4s-1.794-4-3.998-4zm0,5.001c-0.554,0-1.001-0.448-1.001-1.001 0-0.553 0.447-1.001 1.001-1.001 0.549,0 0.996,0.448 0.996,1.001 0,0.553-0.447,1.001-0.996,1.001zm29.061,3.943v-2.442h-22.221v34.838h2.848v-16.342h16.933v-2.441h-16.933v-13.613h19.373z"/>
      </g>
    </g>
  </g>
</svg>
